<svg width="500" height="500" viewBox="0 0 500 500" fill="none" xmlns="http://www.w3.org/2000/svg">
<g clip-path="url(#clip0_168_26)">
<rect width="500" height="500" fill="#F1F1F1"/>
<path d="M335.571 168.5C357.373 168.5 375.337 174.851 388.117 186.229C400.901 197.609 408.454 213.98 409.499 233.931L409.527 234.457H387.526L387.489 233.998C386.344 220.071 380.963 208.596 372.038 200.604C363.112 192.61 350.596 188.059 335.109 188.059C293.375 188.059 263.572 220.296 264.489 260.856C264.833 275.937 270.158 288.446 279.428 297.187C288.7 305.928 301.962 310.941 318.253 310.941C350.814 310.941 374.876 291.372 384.049 263.495L384.162 263.151H406.878L406.713 263.778C396.263 303.441 361.885 330.5 317.791 330.5C295.294 330.5 276.635 323.8 263.508 311.811C250.377 299.818 242.825 282.571 242.477 261.572L242.462 260.322C242.183 207.538 282.612 168.5 335.571 168.5ZM130.369 171.284V231.137H203.491V171.284H242.36V327.716H203.491V264.615H130.369V327.716H91.5V171.284H130.369Z" fill="black"/>
<path d="M335.571 168.5C357.373 168.5 375.337 174.851 388.117 186.229C400.901 197.609 408.454 213.98 409.499 233.931L409.527 234.457H387.526L387.489 233.998C386.344 220.071 380.963 208.596 372.038 200.604C363.112 192.61 350.596 188.059 335.109 188.059C293.375 188.059 263.572 220.296 264.489 260.856C264.833 275.937 270.158 288.446 279.428 297.187C288.7 305.928 301.962 310.941 318.253 310.941C350.814 310.941 374.876 291.372 384.049 263.495L384.162 263.151H406.878L406.713 263.778C396.263 303.441 361.885 330.5 317.791 330.5C295.294 330.5 276.635 323.8 263.508 311.811C250.377 299.818 242.825 282.571 242.477 261.572L242.462 260.322C242.183 207.538 282.612 168.5 335.571 168.5ZM130.369 171.284V231.137H203.491V171.284H242.36V327.716H203.491V264.615H130.369V327.716H91.5V171.284H130.369Z" stroke="black"/>
<path d="M335.571 168.5C357.373 168.5 375.337 174.851 388.117 186.229C400.901 197.609 408.454 213.98 409.499 233.931L409.527 234.457H387.526L387.489 233.998C386.344 220.071 380.963 208.596 372.038 200.604C363.112 192.61 350.596 188.059 335.109 188.059C293.375 188.059 263.572 220.296 264.489 260.856C264.833 275.937 270.158 288.446 279.428 297.187C288.7 305.928 301.962 310.941 318.253 310.941C350.814 310.941 374.876 291.372 384.049 263.495L384.162 263.151H406.878L406.713 263.778C396.263 303.441 361.885 330.5 317.791 330.5C295.294 330.5 276.635 323.8 263.508 311.811C250.377 299.818 242.825 282.571 242.477 261.572L242.462 260.322C242.183 207.538 282.612 168.5 335.571 168.5ZM130.369 171.284V231.137H203.491V171.284H242.36V327.716H203.491V264.615H130.369V327.716H91.5V171.284H130.369Z" stroke="black" stroke-opacity="0.2"/>
<g filter="url(#filter0_f_168_26)">
<ellipse cx="249.5" cy="901" rx="1024.5" ry="596" fill="#D9FFF4"/>
</g>
</g>
<defs>
<filter id="filter0_f_168_26" x="-962.1" y="117.9" width="2423.2" height="1566.2" filterUnits="userSpaceOnUse" color-interpolation-filters="sRGB">
<feFlood flood-opacity="0" result="BackgroundImageFix"/>
<feBlend mode="normal" in="SourceGraphic" in2="BackgroundImageFix" result="shape"/>
<feGaussianBlur stdDeviation="93.55" result="effect1_foregroundBlur_168_26"/>
</filter>
<clipPath id="clip0_168_26">
<rect width="500" height="500" fill="white"/>
</clipPath>
</defs>
</svg>
